<svg xmlns="http://www.w3.org/2000/svg" version="1.1" xmlns:xlink="http://www.w3.org/1999/xlink" width="1000" height="1000"><g clip-path="url(#SvgjsClipPath1183)"><rect width="1000" height="1000" fill="#ffffff"></rect><g transform="matrix(0.5977286312014346,0,0,0.5977286312014346,-5.684341886080802e-14,128.81052002390913)"><svg xmlns="http://www.w3.org/2000/svg" version="1.1" xmlns:xlink="http://www.w3.org/1999/xlink" width="1673.545px" height="1242.319px"><svg version="1.1" id="圖層_1" xmlns="http://www.w3.org/2000/svg" xmlns:xlink="http://www.w3.org/1999/xlink" x="0px" y="0px" width="1673.545px" height="1242.319px" viewBox="0 0 1673.545 1242.319" enable-background="new 0 0 1673.545 1242.319" xml:space="preserve">
<rect y="0.284" fill-rule="evenodd" clip-rule="evenodd" fill="#122819" width="1507.956" height="1065.519"></rect>
<path fill-rule="evenodd" clip-rule="evenodd" fill="#FFFFFF" d="M0,217.847c15.471-3.865,30.943-7.72,46.411-11.596
	c20.343-5.097,40.838-9.274,61.886-9.922c19.785-0.609,39.576-1.578,59.362-1.521c28.979,0.085,57.083,6.2,84.882,13.896
	c3.98,1.102,8.062,1.848,12.11,2.695c3.24,0.678,4.725,2.488,4.811,5.911c0.37,14.64,6.998,25.892,18.879,34.248
	c5.73,4.031,10.269,9.027,11.04,16.335c0.234,2.222-0.209,4.692-0.982,6.814c-7.961,21.851-15.595,43.838-24.315,65.384
	c-3.953,9.767-9.824,18.822-15.377,27.861c-8.293,13.5-14.842,27.702-16.153,43.56c-1.334,16.143,1.366,31.845,9.06,46.371
	c4.996,9.432,8.768,19.247,11.067,29.72c1.597,7.275,4.301,14.3,6.218,21.515c1.719,6.47,0.464,8.19-6.163,7.13
	c-8.165-1.306-16.096-4.137-24.271-5.304c-19.375-2.767-38.85-3.28-57.994,1.556c-10.106,2.553-19.955,6.154-29.869,9.435
	c-10.389,3.438-21.112,3.214-31.628,1.977c-34.778-4.093-68.527-13.015-102.058-22.833c-5.567-1.63-11.272-2.79-16.915-4.167
	C0,403.889,0,310.868,0,217.847z"></path>
<path fill-rule="evenodd" clip-rule="evenodd" fill="#FFFFFF" d="M0,196.842c36.005-18.629,74.226-30.913,113.728-39.41
	c20.607-4.434,41.231-8.872,61.988-12.512c17.81-3.122,35.782-5.416,53.748-7.517c19.305-2.257,38.649-4.587,58.042-5.56
	c21.41-1.074,42.9-1.004,64.347-0.75c16.128,0.191,32.292,0.924
  ,48.35,2.39c18.164,1.66,36.311,3.9,54.304,6.866
	c11.411,1.881,22.676,5.077,33.731,8.557c9.303,2.929,14.908,10.776,20.409,18.344c0.427,0.587,0.311,1.568,0.569,3.085
	c-5.707,0.648-11.22,1.204-16.714,1.912c-25.17,3.245-49.608,9.33-73.126,18.955c-0.462,0.189-0.965,0.329-1.364,0.612
	c-13.534,9.634-29.817,9.183-45.123,12.308c-1.626,0.332-3.302,0.447-4.909,0.846c-6.151,1.53-11.479,1.979-16.687-3.609
	c-2.807-3.012-8.305-4.038-12.791-4.867c-16.153-2.984-32.958-2.523-47.789,3.076c-11.975,4.521-21.771,1.708-32.18-0.953
	c-28.434-7.266-57.237-12.011-86.438-14.535c-21.614-1.868-43.21-1.719-64.72,1.276C71.164,190.4,35.022,195.839,0,206.844
	C0,203.51,0,200.176,0,196.842z"></path>
<path fill-rule="evenodd" clip-rule="evenodd" fill="#FFFFFF" d="M0,825.984c26.382-27.469,42.917-61.006,59.021-94.855
	c-0.703-0.383-0.963-0.623-1.252-0.664c-2.137-0.311-4.28-0.58-6.42-0.863c1.048-1.836,1.868-3.857,3.181-5.48
	c11.228-13.877,19.824-29.363,27.964-45.152c8.79-17.047,17.741-34.012,26.563-51.043c4.701-9.074,9.241-18.23,13.915-27.32
	c10.22-19.871,21.014-39.404,34.186-57.525c2.511-3.455,4.184-7.107,2.686-11.594c-0.99-2.969,0.208-5.018,3.101-6.413
	c11.048-5.325,22.497-8.852,34.871-9.48c21.936-1.115,43.55,0.524,64.824,6.189c3.188,0.849,6.527,1.525,9.803,1.559
	c4.637,0.047,6.155,2.211,6.01,6.5c-0.124,3.655-0.233,7.364,0.224,10.976c1.454,11.499,8.299,17.322,20.988,18.636
	c5.696,0.59,11.392,1.177,18.429,1.904c-2.223,2.575-3.281,4.542-4.924,5.586c-16.505,10.499-34.602,14.805-53.889,11.693
	c-12.727-2.054-25.12-6.13-37.824-8.394c-6.775-1.207-13.894-0.495-20.858-0.628c-5.773-0.111-11.584,0.171-17.306-0.427
	c-3.229-0.337-5.436-0.146-7.038,2.913c-3.05,5.82-6.553,11.419-9.34,17.359c-9.131,19.455-18.032,39.018-27.008,58.545
	c-4.637,10.086-8.962,20.33-13.932,30.248c-7.846,15.66-16.027,31.154-24.237,46.629c-5.656,10.66-12.049,20.949-17.315,31.791
	c-9.259,19.059-17.735,38.496-26.867,57.621c-6.722,14.078-13.968,27.904-20.975,41.848c-0.594,1.182-1.001,2.488-1.757,3.549
	c-0.766,1.074-1.857,1.916-2.806,2.859c-0.913-1.07-2.179-2-2.666-3.236c-1.016-2.584-1.62-5.328-2.404-8.041
	c-9.819,4.76-17.5,11.52-23.431,20.332c-0.889,1.32-2.329,2.271-3.515,3.393C0,858.66,0,842.322,0,825.984z"></path>
<path fill-rule="evenodd" clip-rule="evenodd" d="M0,503.912c20.834,4.823,41.676,9.614,62.487,14.536
	c1.442,0.341,2.657,1.642,3.978,2.497c-1.294,1.076-2.42,2.625-3.908,3.153c-17.582,6.245-35.816,9.687-54.231,12.274
	c-2.747,0.386-5.548,0.374-8.325,0.547C0,525.917,0,514.915,0,503.912z"></path>
<path fill-rule="evenodd" clip-rule="evenodd" fill="#FFFFFF" d="M451.969,429.145c0.023-21.452,5.38-41.466,14.916-60.396
	c6.938-13.773,13.413-27.919,21.786-40.798c13.878-21.345,32.57-38.19,53.578-52.592c12.522-8.585,24.838-17.563,36.508-27.253
	c4.498-3.734,7.814-9.56,10.171-15.073c5.569-13.032,14.337-21.819,28.055-26.091c16.814-5.235,33.696-9.9,51.392-10.596
	c12.785-0.502,25.7-1.835,38.35-0.623c15.384,1.474,30.542,5.28,45.813,7.988c16.58,2.94,33.107,6.3,49.787,8.493
	c13.775,1.811,27.727,2.443,41.622,3.129c13.432,0.664,26.929,1.447,40.329,0.79c8.116-0.397,16.244-2.973,24.108-5.405
	c8.093-2.504,15.29-1.498,21.282,4.142c6.013,5.658,11.715,11.757,16.813,18.244c4.707,5.988,3.403,14.05-1.56,19.869
	c-5.02,5.884-11.949,7.543-18.842,9.306c-10.756,2.749-21.798,4.729-30.822,11.871c-15.397,12.186-28.747,26.139-31.805,46.42
	c-1.604,10.635-3.488,22.016,2.233,32.166c2.305,4.088,6.587,7.057,9.942,10.558c0.982,1.025,1.878,2.13,2.813,3.199
	c-0.993,0.727-1.908,1.614-2.996,2.151c-3.253,1.607-6.662,2.917-9.851,4.639c-6.131,3.312-8.706,9.115-10.903,15.398
	c-2.635,7.535-7.697,10.446-15.428,9.594c-1.151-0.126-2.583-0.745-3.27-1.62c-10.078-12.849-26.109-11.46-38.549-5.174
	c-9.244,4.671-17.296,11.421-28.026,13.481c-5.023,0.965-7.147,6.438-7.751,11.759c-0.862,7.603-1.761,15.205-2.849,22.777
	c-1.918,13.356-8.195,24.302-19.463,31.766c-6.805,4.508-10.896,11.025-15.452,17.325c-3.485,4.819-7.077,9.563-10.513,14.417
	c-1.484,2.098-2.692,4.392-4.029,6.594c-2.352,3.879-4.625,7.808-7.08,11.619c-2.849,4.419-5.498,9.037-8.877,13.024
	c-5.566,6.568-12.807,7.463-20.864,5.134c-4.583-1.326-9.34-2.141-14.07-2.818c-1.442-0.206-3.192,0.57-4.573,1.317
	c-7.574,4.103-14.827,8.903-22.664,12.396c-12.797,5.702-25.232,3.282-37-3.622c-2.856-1.676-5.785-3.303-8.379-5.336
	c-8.708-6.825-19.016-8.441-29.505-8.796c-12.15-0.41-24.207-1.364-35.706-5.352c-7.449-2.584-12.744-8.417-16.683-15.058
	c-4.308-7.264-8.02-14.89-11.826-22.441c-4.938-9.798-12.844-16.563-21.831-22.45c-6.997-4.584-13.766-9.887-15.899-18.409
	C452.813,442.45,452.727,435.713,451.969,429.145z M618.285,533.919c2.563,0,3.898-0.069,5.227,0.011
	c9.513,0.575,17.51-3.144,21.908-11.175c4.982-9.096,5.375-18.985-1.021-28.245c-7.322-10.603-17.465-16.647-30.01-18.525
	c-10.414-1.56-19.221,2.291-26.172,9.897c-5.393,5.901-6.224,13.53-4.873,20.919c1.609,8.805,7.74,15.333,14.129,21.038
	C603.565,533.281,611.346,534.855,618.285,533.919z"></path>
<path fill-rule="evenodd" clip-rule="evenodd" fill="#FFFFFF" d="M1106.667,795.203c-2.138,3.461-4.431,6.84-6.383,10.402
	c-4.064,7.412-8.854,14.594-11.702,22.467c-4.69,12.969-1.522,25.49,4.583,37.531c5.991,11.813,13.786,22.295,22.585,32.072
	c5.758,6.396,11.948,12.406,17.667,18.836c8.837,9.932,19.255,17.873,30.63,24.533c8.802,5.156,18.515,6.973,28.738,6.563
	c7.282-0.293,8.929,2.084,5.934,8.896c-2.721,6.189-1.433,11.756,1.6,17.105c5.421,9.566,13.124,17.115,22.13,23.283
	c5.263,3.605,10.484,7.711,16.358,9.84c4.388,1.59,9.798,0.537,14.74,0.342c2.438-0.098,4.424,0.275,3.647,3.012
	c-1.757,6.197-1.552,11.777,3.249,16.619c5.395,5.441,12.379,6.598,19.394,6.227c5.033-0.264,6.525,0.889,6.002,5.906
	c-1.107,10.611,5.584,17.238,12.775,23.48c10.077,8.744,22.195,11.586,35.104,12.277c3.307,0.176,6.615,0.621,9.879,1.189
	c3.081,0.537,4.051,2.387,1.993,4.961c-6.133,7.67-3.712,14.035,3.258,19.9c7.446,6.268,15.29,12.273,23.68,17.158
	c9.574,5.574,20.326,5.51,31.035,3.074c2.328-0.529,4.732-0.721,7.874-1.182c-1.324,4.109-2.43,7.158-3.288,10.275
	c-2.255,8.195,1.024,14.91,7.479,19.117c15.249,9.932,31.849,14.879,50.263,10.342c1.646-0.406,3.479-0.055,5.811-0.055
	c-0.892,4.137-1.699,7.814-2.476,11.502c-1.209,5.738,0.065,9.061,5.388,11.367c29.868,12.951,59.338,27.088,91.812,32.695
	c24.391,4.211,48.713,3.855,72.817-1.996c10.459-2.541,20.791-5.598,31.191-8.385c0.739-0.199,1.557-0.111,3.111-0.201
	c-1.529,5.457-5.119,8.527-8.916,11.318c-17.588,12.932-37.76,19.475-59.01,22.586c-14.603,2.137-29.4,4.031-44.115,4.055
	c-23.378,0.039-46.273-4.328-68.425-12.039c-22.753-7.922-45.903-14.904-68.097-24.176c-24.048-10.045-47.467-21.723-70.666-33.65
	c-37.546-19.303-71.587-44.178-105.161-69.49c-33.171-25.008-65.476-51.184-97.811-77.277
	c-28.582-23.064-56.826-46.553-84.942-70.184c-15.385-12.93-30.204-26.531-45.263-39.85c-20.382-18.025-40.801-36.012-61.105-54.125
	c-16.352-14.588-32.82-29.061-48.731-44.119c-9.971-9.436-19.053-19.813-28.445-29.852c-9.18-9.809-18.466-19.529-27.308-29.637
	c-10.793-12.338-22.063-24.406-31.505-37.74c-12.047-17.01-22.977-34.875-33.445-52.92c-9.549-16.461-18.696-33.27-26.453-50.627
	c-8.457-18.922-15.426-38.535-22.43-58.068c-4.313-12.028-8.769-24.261-10.768-36.785c-1.778-11.146-0.324-22.819-0.102-34.255
	c0.02-1.05,1.31-2.258,2.276-3.077c4.942-4.185,9.728-8.614,15.021-12.31c11.549-8.063,16.787-19.211,17.704-32.938
	c0.116-1.735,1.631-3.953,3.151-4.923c7.453-4.756,15.983-3.754,24.267-3.942c11.015-0.249,21.827-0.268,31.655,6.355
	c4.484,3.021,7.363,6.896,10.169,11.169c2.364,3.604,4.819,7.167,7.474,10.56c2.77,3.543,6.453,4.002,10.277,1.901
	c10.654-5.854,21.256-11.804,28.526-22.059c0.567-0.8,1.299-1.589,2.135-2.068c1.231-0.705,3.146-1.932,3.836-1.488
	c1.154,0.745,2.24,2.654,2.193,4.034c-0.292,8.634,0.354,17.566-1.681,25.814c-4.008,16.249-8.899,32.357-14.635,48.083
	c-8.194,22.467-8.815,44.982-1.933,67.534c4.493,14.722,9.38,29.547,16.195,43.281c9.712,19.57,20.517,38.729,32.424,57.043
	c10.53,16.195,22.4,31.709,35.168,46.215c12.541,14.25,26.911,26.896,40.567,40.156c6.542,6.35,13.082,12.729,19.976,18.686
	c20.898,18.064,44.72,22.191,70.841,14.045c4.576-1.426,8.889-3.68,13.427-5.256c1.856-0.645,3.985-0.51,5.989-0.729
	C1106.137,794.143,1106.401,794.674,1106.667,795.203z"></path>
<path fill-rule="evenodd" clip-rule="evenodd" fill="#FFFFFF" d="M526.49,175.75c24.883-0.551,48.973,3.965,72.765,10.775
	c6.831,1.956,13.913,3.02,20.829,4.706c1.503,0.367,2.783,1.651,4.167,2.511c-1.237,1.119-2.289,2.668-3.738,3.288
	c-11.221,4.796-22.29,9.893-30.731,19.025c-3.229,3.494-6.668,7.454-8.088,11.827c-2.995,9.22-9.461,15.026-16.789,20.355
	c-14.627,10.638-29.35,21.148-43.91,31.88c-12.192,8.986-21.596,20.58-30.345,32.827c-10.945,15.321-21.416,30.938-28.797,48.306
	c-7.944,18.693-14.818,37.824-17.053,58.184c-1.657,15.094,0.119,29.889,9.463,42.34c4.277,5.699,10.178,10.682,16.317,14.366
	c10.379,6.227,16.086,15.57,20.399,26.131c1.894,4.639,0.806,9.559-2.685,13.017c-5.624,5.57-11.319,11.345-17.902,15.619
	c-14.979,9.722-31.615,15.678-49.444,17.386c-12.718,1.218-25.527,1.585-38.306,2.064c-22.281,0.836-44.566,1.579-66.855,2.103
	c-5.794,0.137-11.677-0.255-17.402-1.15c-10.381-1.625-13.372-5.372-12.901-14.112c1.364-25.313-7.824-47.92-18.789-69.973
	c-7.433-14.95-14.485-30.056-15.06-47.111c-0.617-18.299,6.002-34.497,15.754-49.543c7.026-10.839,15.013-21.1,21.456-32.263
	c11.452-19.844,22.08-40.163,33.006-60.309c3.245-5.983,5.756-12.449,9.593-18.012c14.748-21.388,33.364-38.11,58.094-47.541
	c11.009-4.198,21.426-9.929,32.365-14.333c30.693-12.355,62-22.256,95.632-21.926C520.519,176.216,523.505,175.903,526.49,175.75z"></path>
<path fill-rule="evenodd" clip-rule="evenodd" fill="#FFFFFF" d="M1507.917,350.576c0,6.501,0.021,13.003-0.006,19.504
	c-0.025,6.264-1.056,6.929-7.082,4.746c-8.394-3.04-16.688-6.411-25.221-8.992c-12.09-3.657-24.337-6.761-37.165-6.487
	c-11.625,0.248-21.947,2.864-28.841,13.454c-1.855,2.848-4.919,4.913-7.449,7.317c-2.489,2.366-4.037,2.207-5.295-1.383
	c-3.005-8.573-5.659-17.382-9.792-25.407c-2.779-5.397-7.168-10.493-11.998-14.22c-22.214-17.142-47.219-28.515-74.337-35.941
	c-42.472-11.63-85.601-18.12-129.57-16.836c-28.109,0.82-56.179,4.185-82.539,15.018c-11.146,4.58-21.512,11.033-32.364,16.365
	c-10.407,5.113-21.053,9.739-31.475,14.827c-20.947,10.224-44.116,12.069-66.269,17.722c-8.007,2.042-13.885,6.99-17.979,13.365
	c-7.682,11.964-17.746,21.389-28.602,30.196c-5.151,4.18-10.203,8.496-15.519,12.456c-3.087,2.299-6.362,3.902-10.484,1.203
	c-4.014-2.631-5.193-5.476-3.466-9.999c3.912-10.235,5.76-20.829,4.323-31.8c-0.216-1.641-0.757-4.013-1.913-4.643
	c-15.853-8.643-15.427-23.317-13.643-37.93c2.916-23.858,18.2-38.434,38.948-47.779c7.617-3.431,16.175-4.755,24.276-7.132
	c11.915-3.496,19.987-11.093,23.244-23.127c1.141-4.214,2.742-6.211,7.332-7.141c21.487-4.351,42.761-9.817,64.316-13.764
	c18.604-3.406,37.416-6.142,56.257-7.653c23.19-1.859,46.514-3.088,69.765-2.872c31.479,0.294,62.6,5.099,93.222,12.304
	c18.893,4.445,37.667,9.631,56.12,15.635c23.057,7.504,45.992,15.528,68.492,24.543c24.529,9.827,48.547,20.942,72.699,31.692
	c19.718,8.777,39.336,17.778,58.893,26.907c1.469,0.686,2.884,3.152,2.965,4.855c0.332,6.985,0.139,13.997,0.139,20.997
	C1507.906,350.576,1507.911,350.576,1507.917,350.576z"></path>
<path fill-rule="evenodd" clip-rule="evenodd" fill="#FFFFFF" d="M389.541,557.439c24.905,1.563,50.518-3.354,75.14-13.555
	c10.579-4.384,19.194-11.595,26.859-20.044c4.278-4.717,5.19-4.069,10.105-0.216c5.924,4.645,12.38,8.779,19.071,12.232
	c6.527,3.369,6.604,3.652,1.625,8.875c-10.479,10.994-22.14,20.535-34.866,28.645c-9.073,5.784-18.735,10.7-28.363,15.548
	c-20.292,10.221-41.014,19.622-61,30.396c-10.572,5.701-20.826,12.645-29.655,20.738c-8.671,7.949-15.416,18.018-22.892,27.248
	c-4.5,5.555-10.878,7.131-17.314,7.695c-5.748,0.504-11.617-0.455-17.437-0.65c-6.644-0.225-12.641,1.375-18.25,5.318
	c-4.053,2.85-5.917,6.496-7.032,10.977c-1.529,6.139-4.129,6.975-9.066,3.055c-8.604-6.838-10.775-16.76-6.822-27.094
	c5.467-14.297,14.271-26.342,24.128-37.75c13.53-15.656,26.914-31.449,40.849-46.74c6.536-7.17,14.101-13.43,21.417-19.854
	c4.251-3.732,9.397-5.223,15.188-4.892C376.708,557.685,382.223,557.439,389.541,557.439z"></path>
<path fill-rule="evenodd" clip-rule="evenodd" fill="#FFFFFF" d="M477.971,725.598c-5.295-1.354-9.758-2.682-14.3-3.627
	c-25.346-5.279-50.855-7.455-76.823-6.012c-19.551,1.088-39.271,1.996-58.75-1.564c-10.515-1.922-20.507-5.223-28.993-12.201
	c-4.45-3.66-7.02-9.605-5.201-13.455c1.783-3.771,9.486-7.617,13.872-6.652c9.329,2.049,18.091,1.096,27.257-2.117
	c9.914-3.475,20.44-5.709,30.884-7.045c14.475-1.854,29.14-3.426,43.69-3.176c17.235,0.297,34.443,2.58,51.648,4.154
	c11.418,1.045,22.825,2.252,34.212,3.6c5.265,0.623,10.474,1.732,15.701,2.664c3.716,0.664,4.572,2.625,2.042,5.479
	c-4.292,4.84-8.912,9.395-13.116,14.307c-6.468,7.559-12.678,15.338-19.062,22.971C480.076,724.066,478.767,724.916,477.971,725.598
	z"></path>
<path fill-rule="evenodd" clip-rule="evenodd" fill="#FFFFFF" d="M518.637,722.139c3.631,4.965,6.31,8.428,8.766,12.043
	c2.489,3.664,5.212,7.281,6.945,11.303c0.972,2.258,0.146,5.289,0.131,7.973c-3.182-0.025-6.947,1.027-9.419-0.311
	c-4.886-2.643-8.851-6.936-13.59-9.922c-3.538-2.229-7.694-3.479-11.575-5.162c-0.236,0.383-0.472,0.768-0.708,1.15
	c5.79,6.477,11.91,12.695,17.214,19.549c2.276,2.939,3.164,7.125,4.003,10.896c0.233,1.049-1.845,3.633-3.072,3.779
	c-2.98,0.359-6.616,0.643-9.033-0.729c-6.302-3.572-12.073-8.078-18.096-12.15c-1.917-1.295-3.962-2.402-5.948-3.596
	c-0.427,0.465-0.854,0.93-1.281,1.396c3.438,4.697,7.077,9.266,10.254,14.133c2.706,4.148,5.402,8.443,7.168,13.033
	c2.483,6.451-2.431,12.467-9.315,12.994c-8.8,0.674-16.628-2.354-23.562-6.811c-8.454-5.434-13.829-17.93-5.714-29.209
	c7.915-11.002,15.193-22.477,23.377-33.268c6.887-9.082,13.067-18.803,22.629-25.738c3.713-2.693,5.932-7.412,8.934-11.127
	c3.848-4.76,8.049-9.256,11.646-14.195c5.638-7.744,11.189-15.582,16.238-23.717c5.296-8.533,11.941-15.354,20.99-19.795
	c17.138-8.412,34.598-16.244,51.295-25.457c22.072-12.18,43.611-25.414,61.507-43.534c5.223-5.289,9.783-11.333,14.025-17.461
	c4.193-6.06,7.574-12.681,11.389-19.009c0.434-0.72,1.363-1.141,2.063-1.701c0.577,0.887,1.753,1.863,1.635,2.645
	c-0.696,4.587-0.841,9.538-2.79,13.588c-2.922,6.076-7.31,11.43-10.847,17.23c-9.539,15.639-23.29,27.021-37.504,38.094
	c-14.125,11.004-27.643,22.787-41.757,33.807c-6.713,5.242-13.967,9.914-21.445,13.982c-2.597,1.412-6.724,0.779-9.948,0.104
	c-5.377-1.127-7.579-0.334-10.48,4.455c-2.035,3.357-4.133,6.924-7.023,9.465c-6.623,5.822-10.139,15.014-19.429,17.977
	c-0.619,0.197-0.759,1.723-1.241,2.561c-1.53,2.652-3.196,5.23-4.656,7.922c-1.079,1.988-2.447,4.031-2.761,6.186
	c-0.866,5.941-3.217,10.424-9.436,12.053c-3.231,0.846-4.496,2.908-3.032,5.965C527.576,718.527,526.53,721.615,518.637,722.139z"></path>
<path fill-rule="evenodd" clip-rule="evenodd" fill="#FFFFFF" d="M1187.161,28.7c-0.21,0.417-0.353,0.563-0.34,0.693
	c1.08,10.876-3.362,15.01-14.653,13.601c-2.294-0.287-4.579-0.654-6.958-0.997c0.072,0.575,0.037,0.891,0.152,1.137
	c4.273,9.106,3.324,10.864-6.645,11.883c-2.643,0.272-5.325,0.317-7.983,0.244c-2.626-0.074-5.245-0.428-8.096-0.679
	c0.083-0.136-0.254,0.167-0.199,0.359c2.661,9.509,0.107,12.34-9.723,10.522c-3.843-0.711-7.619-1.782-11.435-2.691
	c-1.914,7.612-4.966,14.397-14.835,14.669c-1.087,0.03-2.07,2.098-3.187,3.13c-2.2,2.036-4.427,4.047-6.702,5.999
	c-3.62,3.104-7.258,6.192-10.954,9.205c-1.634,1.333-3.31,3.268-5.174,3.546c-5.953,0.888-8.647,5.298-11.988,9.387
	c-3.753,4.594-8.101,8.701-12.586,13.439c1.825,1.333,3.306,2.576,4.935,3.577c5.692,3.499,5.764,4.265,1.373,9.834
	c-5.633,7.145-11.762,14.002-16.55,21.686c-5.691,9.135-9.329,19.607-15.412,28.427c-8.073,11.707-16.936,23.089-26.938,33.139
	c-3.967,3.984-11.891,4.062-18.068,5.706c-0.249,0.065-1.669-2.164-1.482-3.115c0.221-1.12,1.595-2.015,2.479-2.999
	c9.856-10.974,20.647-21.259,29.354-33.08c12.49-16.96,18.679-36.8,22.458-57.502c1.993-10.918,4.606-22.132,12.976-30.257
	c8.514-8.264,17.783-15.746,26.696-23.6c5.096-4.49,10.436-8.753,15.15-13.616c15.975-16.479,32.69-32.166,51.543-45.253
	c14.109-9.796,29.594-17.041,47.503-14.627c5.364,0.723,10.72,3.124,15.544,5.744c3.975,2.16,4.234,6.583,2.68,10.667
	c-3.426,9.006-9.972,12.955-19.719,12.136C1189.266,28.921,1188.155,28.798,1187.161,28.7z"></path>
<path fill-rule="evenodd" clip-rule="evenodd" fill="#FFFFFF" d="M706.618,710.33c-4.159,1.664-8.255,3.516-12.492,4.949
	c-7.353,2.486-8.996,7.154-4.414,13.529c6.966,9.686,14.003,19.322,21.014,28.977c0.195,0.27,0.552,0.473,0.634,0.762
	c0.81,2.873,1.578,5.758,2.357,8.641c-2.678,0.014-5.432,0.434-8.015-0.053c-3.902-0.732-7.664-2.178-11.524-3.168
	c-3.61-0.928-5.577,0.066-5.723,4.336c-0.1,2.965-1.357,5.887-2.098,8.83c-2.03-2.131-4.412-4.027-6.037-6.432
	c-11.224-16.609-27.545-24.549-46.59-28.457c-16.556-3.396-32.91-7.777-49.479-11.094c-15.329-3.066-30.845-5.043-46.545-2.936
	c-3.336,0.447-5.026-0.836-4.016-4.096c1.545-4.982,3.373-9.898,5.39-14.711c1.623-3.875,4.357-7.377,5.454-11.359
	c2.63-9.549,10.176-15.084,19.831-12.904c22.33,5.041,44.454,11.074,66.899,15.5c13.93,2.746,28.282,3.434,42.471,4.773
	c9.914,0.939,19.872,1.398,29.805,2.143c0.889,0.066,1.738,0.654,2.607,1.002C706.305,709.15,706.461,709.74,706.618,710.33z"></path>
<path fill-rule="evenodd" clip-rule="evenodd" fill="#FFFFFF" d="M1055.997,565.763c-0.866,1.697-1.626,5.562-3.456,6.163
	c-2.176,0.714-6.212-0.575-7.78-2.415c-3.588-4.204-6.772-8.999-9.032-14.041c-5.553-12.387-10.311-25.128-15.829-37.531
	c-1.084-2.437-3.896-4.417-6.349-5.877c-8.128-4.843-16.531-9.227-24.663-14.064c-2.507-1.491-4.862-3.583-6.627-5.903
	c-4.302-5.66-9.855-8.849-16.838-9.245c-9.737-0.552-17.754-5.181-25.479-10.416c-8.41-5.698-17.814-7.046-27.596-7
	c-6.944,0.032-8.627,2.747-5.365,9.145c3.524,6.917,7.884,13.432,11.117,20.471c4.345,9.459,8.118,19.195,11.753,28.954
	c0.744,2-0.208,4.631-0.378,6.971c-2.1-1.239-4.515-2.143-6.242-3.776c-6.954-6.573-13.417-13.699-20.673-19.903
	c-2.464-2.105-6.695-2.332-10.201-2.922c-1.213-0.204-3.33,0.76-3.848,1.787c-0.536,1.066-0.022,3.086,0.697,4.294
	c5.948,9.983,12.154,19.815,18.032,29.84c1.477,2.518,1.38,6.128,3.17,8.256c3.769,4.477,7.855,8.961,12.633,12.25
	c8.291,5.706,16.215,11.507,21.576,20.294c4.29,7.029,11.565,9.94,18.619,13.481c11.938,5.993,23.396,12.941,35.048,19.505
	c0.425,0.238,0.761,0.641,1.128,0.979c2.613,2.402,4.975,5.553,2.44,8.602c-1.642,1.973-5.701,3.652-8.011,3.023
	c-6.296-1.717-12.547-4.174-18.251-7.352c-9.533-5.311-19.176-10.7-27.758-17.361c-9.512-7.385-17.393-16.863-26.86-24.315
	c-18.69-14.71-28.628-35.639-40.7-55.07c-2.881-4.639-1.924-9.118,0.953-14.324c3.877-7.02,5.684-15.191,8.306-22.892
	c3.937-11.561,6.654-23.309,5.629-35.682c-0.102-1.225,1.055-2.554,1.626-3.834c1.247,0.596,2.474,1.233,3.741,1.779
	c2.865,1.234,5.786,3.54,8.62,3.449c19.701-0.631,37.758,4.062,54.406,14.727c5.991,3.838,12.77,6.429,18.901,10.073
	c6.964,4.136,13.644,8.755,20.373,13.274c5.777,3.88,11.09,8.642,17.255,11.71c8.88,4.421,14.857,11.453,18.733,19.869
	c6.088,13.214,10.978,26.981,16.324,40.534C1055.562,562.327,1055.589,563.539,1055.997,565.763z"></path>
<path fill-rule="evenodd" clip-rule="evenodd" fill="#FFFFFF" d="M880.104,801.223c-9.943-3.107-19.939-6.057-29.813-9.377
	c-7.268-2.441-14.246-3.324-21.834-0.771c-6.63,2.232-12.666-1.834-18.528-4.264c-7.926-3.281-15.483-7.453-23.304-11.295
	c-3.22,4.025-6.631,3.455-10.387,1.404c-11.186-6.109-22.434-12.104-33.684-18.092c-0.962-0.512-2.529-1.271-3.123-0.875
	c-4.393,2.93-7.624,0.008-10.91-2.023c-6.078-3.76-12.423-7.252-17.894-11.777c-4.645-3.84-8.433-8.813-12.168-13.619
	c-1.806-2.324-0.471-4.371,2.534-3.975c3.434,0.451,6.803,1.441,10.168,2.32c9.607,2.51,19.223,5.006,28.779,7.699
	c1.945,0.549,4.434,1.477,5.338,3.012c4.345,7.381,11.385,9.488,19.051,10.859c7.667,1.369,15.323,2.84,22.917,4.563
	c1.558,0.354,3.792,1.834,4.036,3.115c0.785,4.113,3.523,4.658,6.825,5.031c9.396,1.066,18.769,2.34,28.171,3.336
	c4.726,0.502,8.428,2.43,11.64,5.957c1.368,1.502,3.678,2.496,5.73,2.949c3.548,0.787,7.222,1.033,10.854,1.396
	c7.486,0.746,12.51,5.531,17.382,10.537c2.43,2.496,4.819,5.051,7.003,7.758c1.113,1.381,1.735,3.156,2.579,4.754
	C881.013,800.305,880.559,800.764,880.104,801.223z"></path>
<path fill-rule="evenodd" clip-rule="evenodd" fill="#122819" d="M618.285,533.919c-6.939,0.937-14.72-0.638-20.813-6.08
	c-6.389-5.706-12.52-12.233-14.129-21.038c-1.351-7.389-0.52-15.018,4.873-20.919c6.951-7.607,15.758-11.458,26.172-9.897
	c12.545,1.878,22.688,7.922,30.01,18.525c6.396,9.26,6.004,19.149,1.021,28.245c-4.398,8.031-12.396,11.75-21.908,11.175
	C622.184,533.85,620.848,533.919,618.285,533.919z"></path>
</svg></svg></g></g><defs><clipPath id="SvgjsClipPath1183"><rect width="1000" height="1000" x="0" y="0" rx="350" ry="350"></rect></clipPath></defs></svg>